<?xml version="1.0" standalone="no"?>
<!DOCTYPE svg PUBLIC "-//W3C//DTD SVG 20010904//EN"
 "http://www.w3.org/TR/2001/REC-SVG-20010904/DTD/svg10.dtd">
<svg version="1.0" xmlns="http://www.w3.org/2000/svg"
 width="700.000000pt" height="700.000000pt" viewBox="0 0 700.000000 700.000000"
 preserveAspectRatio="xMidYMid meet">
<metadata>
Created by potrace 1.14, written by Peter Selinger 2001-2017
</metadata>
<g transform="translate(0.000000,700.000000) scale(0.100000,-0.100000)"
fill="#000000" stroke="none">
<path d="M1660 5835 l0 -555 185 0 185 0 0 555 0 555 -185 0 -185 0 0 -555z"/>
<path d="M4967 6383 c-4 -3 -7 -253 -7 -555 l0 -548 190 0 190 0 0 555 0 555
-183 0 c-101 0 -187 -3 -190 -7z"/>
<path d="M550 3260 l0 -2760 2945 0 2945 0 0 2760 0 2760 -370 0 -370 0 0
-550 0 -550 -545 0 -545 0 -2 548 -3 547 -1107 3 -1108 2 0 -550 0 -550 -545
0 -545 0 0 550 0 550 -375 0 -375 0 0 -2760z m5520 -740 l0 -1650 -2570 0
-2570 0 0 1650 0 1650 2570 0 2570 0 0 -1650z"/>
<path d="M1662 2523 l3 -998 415 1 c553 0 619 10 705 106 71 79 95 191 95 450
0 162 -14 275 -42 341 -28 65 -101 128 -185 160 -37 14 -59 26 -48 26 37 1
140 58 172 94 43 49 54 91 60 227 15 350 -100 528 -371 575 -68 11 -172 15
-447 15 l-359 0 2 -997z m637 637 c35 -18 51 -83 51 -198 0 -116 -10 -177 -33
-199 -7 -8 -39 -17 -70 -20 l-57 -6 0 217 0 216 46 0 c25 0 53 -4 63 -10z m16
-764 c14 -9 25 -29 28 -53 11 -62 8 -355 -4 -395 -11 -43 -41 -62 -106 -71
l-43 -5 0 275 0 276 51 -6 c28 -4 62 -13 74 -21z"/>
<path d="M3060 2520 l0 -1000 420 0 420 0 0 205 0 205 -160 0 -160 0 0 795 0
795 -260 0 -260 0 0 -1000z"/>
<path d="M4020 2520 l0 -1000 260 0 260 0 0 450 0 450 30 0 c17 0 46 -6 64
-14 52 -22 56 -59 56 -501 l0 -385 246 0 245 0 -3 413 c-4 446 -3 437 -62 516
-32 42 -76 73 -145 98 l-54 20 42 7 c56 9 134 49 160 82 36 46 52 121 58 269
9 245 -33 395 -138 489 -101 91 -198 106 -684 106 l-335 0 0 -1000z m615 640
c42 -16 55 -63 55 -197 0 -131 -11 -188 -40 -203 -11 -6 -40 -13 -65 -16 l-45
-7 0 217 0 216 34 0 c19 0 46 -4 61 -10z"/>
</g>
</svg>
