<?xml version="1.0" standalone="no"?>
<!DOCTYPE svg PUBLIC "-//W3C//DTD SVG 20010904//EN"
 "http://www.w3.org/TR/2001/REC-SVG-20010904/DTD/svg10.dtd">
<svg version="1.0" xmlns="http://www.w3.org/2000/svg"
 width="700.000000pt" height="700.000000pt" viewBox="0 0 700.000000 700.000000"
 preserveAspectRatio="xMidYMid meet">
<metadata>
Created by potrace 1.14, written by Peter Selinger 2001-2017
</metadata>
<g transform="translate(0.000000,700.000000) scale(0.100000,-0.100000)"
fill="#000000" stroke="none">
<path d="M1660 5835 l0 -555 185 0 185 0 0 555 0 555 -185 0 -185 0 0 -555z"/>
<path d="M4971 6367 c-5 -12 -9 -262 -10 -554 l-2 -533 190 0 191 0 0 555 0
556 -181 -1 c-175 -2 -180 -2 -188 -23z"/>
<path d="M550 3260 l0 -2760 2945 0 2945 0 0 2760 0 2760 -370 0 -370 0 0
-550 0 -550 -545 0 -545 0 -1 298 c0 163 -1 409 -2 547 l-2 249 -1107 4 -1108
3 0 -551 0 -550 -545 0 -545 0 0 550 0 550 -375 0 -375 0 0 -2760z m5520 -740
l0 -1650 -2570 0 -2570 0 0 1650 0 1650 2570 0 2570 0 0 -1650z"/>
<path d="M1662 2527 c3 -875 5 -996 18 -1000 24 -5 733 0 828 7 156 11 204 27
264 88 54 55 83 125 97 230 10 77 7 412 -3 463 -4 17 -9 43 -12 59 -17 79 -83
153 -180 198 l-65 30 62 31 c133 65 161 121 164 331 5 311 -94 473 -327 532
-50 13 -142 17 -456 21 l-393 5 3 -995z m641 628 c36 -26 46 -82 43 -220 -1
-76 -7 -139 -14 -152 -13 -23 -66 -43 -114 -43 l-28 0 0 215 0 215 48 0 c26 0
55 -7 65 -15z m8 -758 c11 -7 24 -28 29 -47 14 -50 7 -388 -9 -420 -14 -29
-49 -47 -104 -54 l-37 -5 0 276 0 276 51 -7 c28 -4 59 -12 70 -19z"/>
<path d="M3060 2520 l0 -1000 420 0 420 0 0 205 0 205 -160 0 -160 0 0 795 0
795 -260 0 -260 0 0 -1000z"/>
<path d="M4020 2521 l0 -1001 260 0 260 0 0 451 0 452 47 -7 c101 -14 101 -10
102 -553 l1 -343 246 0 246 0 -6 393 c-3 215 -8 409 -11 431 -7 48 -17 67 -63
118 -34 38 -137 97 -172 99 -8 0 13 8 47 18 87 25 140 63 163 115 25 60 37
170 34 321 -3 193 -37 299 -124 385 -100 101 -149 110 -637 117 l-393 6 0
-1002z m619 634 c37 -19 50 -69 49 -201 0 -115 -12 -180 -38 -194 -9 -5 -38
-12 -63 -15 l-47 -7 0 216 0 216 35 0 c20 0 49 -7 64 -15z"/>
</g>
</svg>
